PathFileType	4	(X/Y/Z)	56_2_11_p0_0-377_filt_butterworth.trc
DataRate	CameraRate	NumFrames	NumMarkers	Units	OrigDataRate	OrigDataStartFrame	OrigNumFrames
59.0	59.0	6	27	m	59.0	0	377
Frame#	Time	RHip			RKnee			RAnkle			RBigToe			RSmallToe			RHeel			LHip			LKnee			LAnkle			LBigToe			LSmallToe			LHeel			Neck			Head			Nose			RShoulder			RElbow			RWrist			RThumb			RIndex			RPinky			LShoulder			LElbow			LWrist			LThumb			LIndex			LPinky			
		X1	Y1	Z1	X2	Y2	Z2	X3	Y3	Z3	X4	Y4	Z4	X5	Y5	Z5	X6	Y6	Z6	X7	Y7	Z7	X8	Y8	Z8	X9	Y9	Z9	X10	Y10	Z10	X11	Y11	Z11	X12	Y12	Z12	X13	Y13	Z13	X14	Y14	Z14	X15	Y15	Z15	X16	Y16	Z16	X17	Y17	Z17	X18	Y18	Z18	X19	Y19	Z19	X20	Y20	Z20	X21	Y21	Z21	X22	Y22	Z22	X23	Y23	Z23	X24	Y24	Z24	X25	Y25	Z25	X26	Y26	Z26	X27	Y27	Z27	
0	0.0	0.431884669270621	0.6537502805440115	0.28407331549382786	0.4404594971338529	0.8109932509208919	0.6721566364183642	0.487236014758563	1.0846399411504366	1.0786944065928117	0.4033938667538078	0.8607187303597116	1.1231999128178103	0.47672525309267894	0.929164234192511	1.1544223509656515	0.49961425049080416	1.154127081941998	1.1117218638305582	0.2580743758120961	0.7762262363969076	0.26952379749851685	0.2850733840632756	0.9270727664127051	0.6564327584653783	0.31930231610053217	1.0935637564360547	1.024901950522362	0.2504425394489789	0.9202527699393813	1.119614385957195	0.23070940921776734	1.000320413152136	1.1251306188509411	0.3537997225522985	1.1574673597209155	1.079015659085413	0.3320435910274589	0.49639736208037255	-0.21002883203451844	0.3010974803134224	0.349405343950869	-0.43342208914971864	0.2881506826856276	0.35624900177117447	-0.28802089472559245	0.4751504506158112	0.47931308404626544	-0.11280352404973525	0.4966430180054504	0.5536840831616467	0.12379400689664558	0.33540373059818696	0.5500704243257492	0.2946396660573804	0.3058969555424018	0.6044793952004976	0.3919885356483103	0.3078636781830866	0.6220712398698214	0.4015282352983157	0.28943802656096584	0.5950829202980333	0.39964110257996166	0.1750380807680764	0.5719741782849951	-0.15495014385523506	0.14552793038957393	0.6103253941787975	0.09443640916441362	0.225442445834794	0.5182521096610974	0.27915711675820026	0.3121818840941824	0.5238106648857768	0.36078124836805725	0.3236980228956126	0.5578711471256077	0.4053143915601389	0.27802399459233235	0.5684986967568009	0.3914816029592689
1	0.0169491525423728	0.43184202367483154	0.6551776033933308	0.28742435991875176	0.4403554237959516	0.8109399099006606	0.6723163138991831	0.48028388588578486	1.0716465182818906	1.0769563610269834	0.40204783179740167	0.8586455985988326	1.1263311952138684	0.4730926389177937	0.9129876089159172	1.151713075678964	0.5014835566237112	1.15742347632292	1.113092820518928	0.2554672726547931	0.7714809306402117	0.2681189100962127	0.28550270612016626	0.9276852661230176	0.6576592196631476	0.32458341721866907	1.1013041356630433	1.0253712207494503	0.24593671893840113	0.909399664459508	1.1174850901179587	0.23103044860907307	0.9986605444291053	1.1227464901479742	0.3586992515580699	1.1657489595725363	1.0810842323687773	0.33202307431892825	0.49644731211532045	-0.210145748286029	0.30100151410084597	0.34932285272739655	-0.43212613804376504	0.2882300212797299	0.35622460665352107	-0.2880305851434399	0.47277950350220876	0.4758752741534255	-0.11478921402530573	0.4965178173141208	0.5548278714110182	0.12768195148744627	0.33435600156206013	0.5389495200733299	0.297135028612493	0.3093999987446179	0.6046976391189701	0.39482597929091645	0.3085319570734167	0.6187984457225708	0.40316271508248347	0.28657604193334707	0.585242924550935	0.3991430977174789	0.17506303492503017	0.5719873600340082	-0.15499346818798299	0.1455648520948294	0.6100482015605709	0.09366094153820262	0.22631196692964725	0.510248945338474	0.27962514575801745	0.3160788363481303	0.538235468813719	0.36231964335268363	0.32443276308391117	0.5673954587755512	0.4054332367574044	0.28301561119863544	0.5761545986670735	0.3920161632335383
2	0.0338983050847457	0.4318023289815179	0.6556294013586721	0.28890591835654367	0.44029329567133085	0.8108847056310153	0.6723998579919002	0.474913431297904	1.0596242375005573	1.0754961969664776	0.40042498765353834	0.8561568055851623	1.1280250432351422	0.47009120119655534	0.9020837827292139	1.150218379867816	0.5011445486817511	1.1576272053624597	1.114245093103798	0.25350354579651097	0.7679003983582362	0.2667317558951626	0.2856095638888873	0.9277117033987918	0.6577538349022379	0.32782800823912583	1.1055897200533389	1.025023378156293	0.24324924079637422	0.9029635904266335	1.1162371355683058	0.2312215675327887	0.9977068203846979	1.1213320216057492	0.3616284504990688	1.1707231546887762	1.0822814673817127	0.3320176269941021	0.49649051337530126	-0.2101565484641493	0.3009475828081999	0.3492737969214221	-0.43147451679256843	0.2882663265495143	0.35621784344591084	-0.28801566307625126	0.472358298859828	0.47504797753545047	-0.11613785088370296	0.49633774940089737	0.5538966231929066	0.12944112687806406	0.3338598603756684	0.5316603155856435	0.29851163527806784	0.3122365177258468	0.6048180701295319	0.39764425204073317	0.30818320127688237	0.6187749511142846	0.40294761002666313	0.28441941955883976	0.5789934945990499	0.3976568768545099	0.1750851389512955	0.5720145775899481	-0.15501875499193918	0.14547187091912775	0.6100319297813326	0.09371836465303843	0.22686952393547757	0.5058020771138088	0.27946686072478716	0.3187314680290922	0.5471838143691392	0.363414319285122	0.3247933771382305	0.5730784875891326	0.4054100619005727	0.2858783956597212	0.5803979428310184	0.3917211861722997
3	0.0508474576271186	0.43217783572381185	0.6554225492473764	0.28866492877705185	0.4403038931258164	0.8108401094180772	0.6724737666757092	0.4722759239220303	1.0519288898674557	1.074718107004616	0.39901567679234257	0.8539652697318317	1.1279782472659061	0.4683251495301576	0.8976428905042525	1.1499276386632247	0.4996488730766433	1.1562925656191854	1.1153952460539875	0.25191116715314943	0.7650436356429903	0.2657360166010884	0.28546172511972967	0.9273046413659851	0.6570806984355393	0.3288418693250487	1.106401573552475	1.0241988809927491	0.2425148515506994	0.9012538967535806	1.1159137145656906	0.23127117376763856	0.9974834684409304	1.1209437594113794	0.36247041221301635	1.172187210890586	1.0825266022764908	0.3320305477604649	0.4965368750043322	-0.2100651330152487	0.30089222234397606	0.34909023320249866	-0.4319615200679743	0.28825936113939377	0.35621512409488687	-0.28798196547848764	0.4733241608884856	0.476143905583988	-0.1166872225065369	0.4960194860284274	0.550008733778299	0.12925549842780165	0.33501356683947164	0.5306315400435762	0.298516400409088	0.3139291199463991	0.6046002509591942	0.4000426021633073	0.3063857459292472	0.6208710739866721	0.4009432276156672	0.2833866365423353	0.5768653998123155	0.39584330877533624	0.1751050906051706	0.5720639794860983	-0.15502704359748232	0.14543661846572026	0.6101604585414067	0.0941220399952514	0.2270633550825178	0.5050659314684522	0.27858729069995997	0.31996900401772993	0.5498659746236935	0.364048757681936	0.32478317392797507	0.574693083463996	0.40522629926283393	0.28567628870778544	0.5791571930502454	0.38972139642927667
4	0.0677966101694915	0.4333568491085417	0.6552334612329411	0.28777603061182244	0.44042425956250586	0.8109394347717028	0.6727349636397106	0.47256847240237226	1.0507352602439433	1.0748906805677612	0.39818430051992926	0.8526304377103348	1.126970740659278	0.467772098209347	0.8972232443402107	1.1501117509929482	0.4994861586984703	1.1569002820078984	1.1167325654572802	0.25055395597041197	0.7626640057345289	0.26533106826042213	0.285283878949672	0.9268817205003238	0.6565212835524636	0.32872893202592934	1.1057992302257456	1.0235866814306032	0.24272296452570297	0.9018133961552174	1.1160040311658912	0.23125347578567812	0.997589745124146	1.1210351835733041	0.3623500092650738	1.1719937014406776	1.082299253703938	0.33205366421151195	0.49659369732880954	-0.21007614494430596	0.30097103482842513	0.34901908505984075	-0.4333157155298339	0.28823731389969703	0.3561672353093721	-0.2880227229834266	0.4741840518203444	0.4772066506044998	-0.11673907387326321	0.4956024563971574	0.544797406209506	0.1288570816987571	0.3389777300809068	0.5356804638424638	0.2975947395002776	0.3131686948139514	0.6039490861162266	0.4004053220192865	0.303489940793491	0.6225219579439896	0.39835825669773867	0.2833058510445675	0.5774035111151041	0.39468947162525914	0.17512896958977794	0.572127402550384	-0.1550322235097406	0.1459411500740115	0.6102387651179126	0.09374263254615954	0.2270229121870876	0.5055647262710814	0.2775360093532034	0.31944299948756194	0.5478977584363665	0.3640443086565279	0.3246330521470123	0.5743674551327226	0.4049853868838263	0.28290799141989414	0.5726376497023642	0.38590913395995263
5	0.0847457627118644	0.4349348975209328	0.6550137780276989	0.28690297278127946	0.440641574746813	0.8115094952072542	0.6733205999877424	0.4750909975103349	1.0547635664888801	1.0759332895987443	0.39767625715915733	0.8518830558985024	1.1259668725145369	0.4677983440449291	0.8979407884243595	1.1502721007907861	0.5016710546545189	1.160847431076405	1.1182843574970287	0.249710424310039	0.7612956488755658	0.26529069081045936	0.2851711219580945	0.9266033384995999	0.6563172936412359	0.3284245302213265	1.105290657132916	1.0234497095880455	0.2430343955545094	0.9026134992983391	1.1161069779203092	0.2312272701050863	0.997725123671468	1.1211799674972764	0.3621787927560792	1.1716165721776144	1.0820356167857805	0.33206067963092273	0.4966036331623971	-0.2105944565804916	0.30165660568754643	0.3498385687879705	-0.4348983080769942	0.2882292049325078	0.35601319548949706	-0.2883554882468109	0.47446692630229637	0.4775695677814844	-0.11666275525226735	0.49527022100320667	0.5412381320619222	0.12933105713106283	0.34517384368359044	0.5428407482577884	0.2964473276098563	0.30925514319767916	0.6035931348097718	0.3978020988001115	0.3004680848531981	0.6231699585389135	0.3961330397290172	0.2839072795441553	0.5796318058027791	0.3941079460168859	0.17516101302123283	0.5721805205431771	-0.15504742697947918	0.14728284842100844	0.6103204794067355	0.09221353452570322	0.2268924818849421	0.5045902949852514	0.27691153904552945	0.3168788329875446	0.543516307279586	0.36314843342498493	0.32447931734776375	0.5737634756711856	0.40479727438362356	0.2793161355868343	0.5642624776578157	0.3813143565235262
